<?xml version="1.0" standalone="no"?>
<!DOCTYPE svg PUBLIC "-//W3C//DTD SVG 20010904//EN"
 "http://www.w3.org/TR/2001/REC-SVG-20010904/DTD/svg10.dtd">
<svg version="1.0" xmlns="http://www.w3.org/2000/svg"
 width="227.000000pt" height="201.000000pt" viewBox="0 0 227.000000 201.000000"
 preserveAspectRatio="xMidYMid meet">

<g transform="translate(0.000000,201.000000) scale(0.100000,-0.100000)"
fill="#000000" stroke="none">
<path d="M1395 1847 c-82 -28 -175 -93 -175 -123 0 -8 12 -33 26 -56 25 -39
25 -42 8 -51 -44 -25 -116 -104 -141 -154 -50 -104 -44 -228 23 -475 38 -138
47 -226 25 -252 -7 -9 -12 -16 -10 -16 2 -1 50 -1 107 -2 56 -1 102 -5 102 -8
0 -14 -25 -28 -67 -39 -51 -14 -58 -30 -48 -116 6 -58 9 -64 36 -76 41 -16 75
-65 84 -117 7 -43 -7 -78 -26 -66 -13 7 -11 44 2 44 19 0 -2 44 -37 78 -18 17
-42 32 -53 32 -31 0 -70 -38 -83 -82 -10 -35 -10 -41 5 -50 17 -9 24 -48 8
-48 -16 0 -28 25 -34 70 -6 51 12 100 48 128 20 16 22 25 19 80 -2 34 1 73 6
88 6 15 8 29 6 32 -3 2 -26 -6 -51 -18 -52 -25 -95 -77 -132 -158 -24 -54
-103 -306 -103 -329 0 -10 118 -13 556 -13 l556 0 -7 32 c-17 77 -79 268 -105
324 -35 72 -86 129 -134 149 -67 28 -71 24 -71 -63 0 -71 -3 -82 -30 -121 -16
-24 -38 -58 -49 -77 -17 -32 -17 -36 -2 -53 31 -34 14 -81 -29 -81 -44 0 -62
57 -26 82 11 8 23 27 27 42 3 15 22 48 41 73 41 53 53 83 53 128 0 55 -15 82
-54 95 -20 6 -36 18 -36 26 0 11 20 14 101 14 100 0 100 0 92 23 -15 40 -5
110 37 272 51 193 61 305 35 384 -21 65 -80 140 -139 177 -25 16 -46 32 -46
36 0 4 14 29 30 55 17 26 30 52 30 59 0 20 -70 75 -129 102 -67 31 -184 39
-246 19z m167 -8 c87 -19 188 -81 188 -117 0 -8 -13 -36 -29 -61 -16 -25 -32
-61 -36 -79 -7 -33 -8 -33 -47 -27 -51 9 -258 9 -297 0 -27 -6 -30 -3 -36 27
-4 18 -20 51 -35 73 -42 63 -43 71 -4 104 85 75 188 103 296 80z m189 -612
l67 -67 -14 -61 c-38 -163 -174 -335 -281 -355 -79 -15 -169 40 -243 148 -40
59 -100 189 -100 217 0 15 78 58 161 88 86 32 149 88 218 195 l43 67 41 -82
c29 -58 60 -102 108 -150z m-335 -482 c36 -19 121 -19 154 0 31 18 42 19 38 3
-5 -28 13 -65 38 -77 31 -14 35 -10 -79 -80 l-69 -42 -61 35 c-34 19 -74 44
-89 54 l-28 18 30 22 c22 16 30 31 30 52 0 35 -1 34 36 15z m454 -390 c0 -25
-1 -25 -90 -25 -89 0 -90 0 -90 25 0 25 1 25 90 25 89 0 90 0 90 -25z"/>
<path d="M1441 1734 c-35 -45 -24 -92 28 -113 32 -14 64 -3 88 28 33 42 -6
111 -62 111 -24 0 -39 -7 -54 -26z m65 -19 c4 -8 12 -15 20 -15 8 0 14 -4 14
-10 0 -5 -6 -10 -14 -10 -7 0 -16 -9 -19 -21 -6 -23 -27 -17 -27 7 0 8 -7 14
-15 14 -8 0 -15 5 -15 10 0 6 7 10 15 10 8 0 15 7 15 15 0 8 5 15 10 15 6 0
13 -7 16 -15z"/>
<path d="M345 1151 c-43 -19 -100 -78 -116 -118 -15 -41 -10 -125 11 -168 34
-72 43 -78 116 -81 37 -2 74 1 82 5 8 5 33 55 56 111 23 56 46 102 51 102 6 0
37 -65 69 -146 33 -80 64 -146 68 -146 4 0 8 13 8 29 0 17 5 33 12 37 7 4 70
7 140 5 l127 -2 30 41 c113 156 0 366 -187 347 -67 -7 -128 -45 -157 -100 -21
-38 -35 -48 -35 -22 0 24 -62 87 -105 106 -22 10 -60 19 -85 19 -25 0 -63 -9
-85 -19z"/>
<path d="M508 848 l-35 -93 -117 -3 c-94 -2 -116 -5 -116 -17 0 -12 14 -15 58
-15 l57 0 138 -126 138 -127 42 39 c23 22 44 41 47 44 3 3 46 42 96 87 86 78
93 82 142 85 29 2 52 8 52 13 0 6 -56 11 -144 13 l-144 3 -7 -48 c-8 -56 -23
-89 -35 -77 -5 5 -34 72 -65 149 -32 77 -60 146 -64 153 -5 9 -21 -22 -43 -80z"/>
<path d="M1600 305 c0 -14 4 -25 9 -25 4 0 6 11 3 25 -2 14 -6 25 -8 25 -2 0
-4 -11 -4 -25z"/>
<path d="M1643 319 c3 -9 0 -22 -6 -28 -8 -8 -8 -11 0 -11 16 0 23 25 11 41
-8 11 -9 11 -5 -2z"/>
</g>
</svg>
