<?xml version="1.0" standalone="no"?>
<!DOCTYPE svg PUBLIC "-//W3C//DTD SVG 20010904//EN"
 "http://www.w3.org/TR/2001/REC-SVG-20010904/DTD/svg10.dtd">
<svg version="1.0" xmlns="http://www.w3.org/2000/svg"
 width="64.000000pt" height="64.000000pt" viewBox="0 0 64.000000 64.000000"
 preserveAspectRatio="xMidYMid meet">

<g transform="translate(0.000000,64.000000) scale(0.100000,-0.100000)"
fill="#000000" stroke="none">
<path d="M195 611 c-43 -19 -66 -57 -75 -124 -10 -65 -6 -97 11 -97 16 0 49
-44 49 -66 0 -17 -7 -22 -40 -27 -90 -12 -120 -60 -120 -192 l0 -85 220 0 220
0 0 70 c0 54 3 70 14 70 34 0 46 30 46 110 0 77 0 78 31 90 46 19 69 64 69
133 0 50 -3 60 -20 64 -11 3 -20 9 -20 14 0 5 -4 9 -10 9 -5 0 -10 -13 -10
-30 0 -16 5 -30 10 -30 6 0 10 5 10 10 0 6 5 10 10 10 6 0 10 -25 10 -56 0
-48 -4 -59 -29 -85 -40 -39 -82 -39 -122 0 -25 26 -29 37 -29 85 0 31 5 56 10
56 6 0 10 -4 10 -10 0 -5 5 -10 10 -10 6 0 10 14 10 30 0 17 -4 30 -10 30 -5
0 -10 -4 -10 -9 0 -5 -9 -11 -20 -14 -17 -4 -20 -14 -20 -64 0 -69 23 -114 69
-133 l32 -13 -3 -81 c-2 -64 -6 -81 -19 -84 -10 -2 -21 11 -31 37 -18 46 -52
71 -108 78 -33 5 -40 10 -40 27 0 22 33 66 49 66 17 0 21 32 11 97 -7 53 -15
73 -38 96 -31 31 -91 44 -127 28z m98 -147 c25 -9 23 -72 -5 -101 -45 -48
-118 -13 -118 59 0 37 1 38 34 38 19 0 38 5 41 11 4 5 12 8 18 5 7 -4 20 -9
30 -12z m-143 -45 c0 -11 -4 -17 -10 -14 -5 3 -10 13 -10 21 0 8 5 14 10 14 6
0 10 -9 10 -21z m200 7 c0 -8 -4 -18 -10 -21 -5 -3 -10 3 -10 14 0 12 5 21 10
21 6 0 10 -6 10 -14z m-72 -120 c-2 -10 -11 -24 -20 -30 -22 -14 -52 2 -56 30
-2 16 4 19 38 19 34 0 40 -3 38 -19z m52 -111 c8 -10 31 -15 71 -15 33 0 59
-4 59 -10 0 -6 -26 -10 -59 -10 -40 0 -63 -5 -71 -15 -23 -28 -70 -11 -70 25
0 36 47 53 70 25z m-240 -135 c0 -15 -7 -20 -25 -20 -18 0 -25 5 -25 20 0 15
7 20 25 20 18 0 25 -5 25 -20z m350 0 c0 -15 -7 -20 -25 -20 -18 0 -25 5 -25
20 0 15 7 20 25 20 18 0 25 -5 25 -20z"/>
<path d="M284 179 c-10 -17 13 -36 27 -22 12 12 4 33 -11 33 -5 0 -12 -5 -16
-11z"/>
</g>
</svg>
