<?xml version="1.0" standalone="no"?>
<!DOCTYPE svg PUBLIC "-//W3C//DTD SVG 20010904//EN"
 "http://www.w3.org/TR/2001/REC-SVG-20010904/DTD/svg10.dtd">
<svg version="1.0" xmlns="http://www.w3.org/2000/svg"
 width="297.000000pt" height="180.000000pt" viewBox="0 0 297.000000 180.000000"
 preserveAspectRatio="xMidYMid meet">

<g transform="translate(0.000000,180.000000) scale(0.100000,-0.100000)"
fill="#000000" stroke="none">
<path d="M1772 1750 c-58 -36 -64 -65 -60 -314 3 -209 4 -223 27 -266 49 -95
112 -153 194 -179 l37 -13 0 -252 c0 -261 -6 -308 -40 -326 -10 -6 -48 -10
-84 -10 l-64 0 -12 34 c-18 56 -73 119 -131 151 l-54 30 -358 3 c-416 3 -432
1 -515 -73 -78 -70 -92 -118 -92 -314 0 -140 2 -160 18 -174 17 -15 71 -17
569 -17 440 0 553 3 561 13 6 7 13 56 14 108 l3 94 90 5 c97 5 131 18 177 67
55 57 58 78 58 381 l0 278 55 23 c71 29 139 96 173 169 25 55 27 65 30 269 4
203 3 214 -18 258 -35 73 -45 75 -312 75 -216 0 -235 -2 -266 -20z m302 -176
c10 -10 16 -33 16 -65 l0 -49 47 0 c75 0 107 -46 63 -90 -14 -14 -33 -20 -65
-20 l-45 0 0 -48 c0 -55 -12 -72 -51 -72 -36 0 -59 33 -59 82 0 37 -1 38 -38
38 -50 0 -82 23 -82 60 0 35 23 50 78 50 l39 0 5 52 c7 71 53 102 92 62z"/>
<path d="M1127 1400 c-91 -23 -177 -92 -216 -173 -38 -80 -37 -82 52 -80 91 2
183 30 242 73 81 60 82 60 128 8 53 -59 102 -88 150 -88 43 0 46 8 17 74 -57
134 -232 221 -373 186z"/>
<path d="M1231 1149 c-68 -44 -156 -70 -260 -76 l-93 -6 4 -41 c11 -92 85
-193 171 -235 172 -83 366 -15 443 154 12 27 26 67 29 88 l7 37 -51 0 c-60 0
-118 26 -171 75 l-35 32 -44 -28z"/>
</g>
</svg>
