<?xml version="1.0" standalone="no"?>
<!DOCTYPE svg PUBLIC "-//W3C//DTD SVG 20010904//EN"
 "http://www.w3.org/TR/2001/REC-SVG-20010904/DTD/svg10.dtd">
<svg version="1.0" xmlns="http://www.w3.org/2000/svg"
 width="64.000000pt" height="64.000000pt" viewBox="0 0 64.000000 64.000000"
 preserveAspectRatio="xMidYMid meet">

<g transform="translate(0.000000,64.000000) scale(0.100000,-0.100000)"
fill="#000000" stroke="none">
<path d="M183 625 c-67 -29 -93 -125 -53 -191 14 -21 36 -39 65 -50 42 -16 48
-16 90 0 108 42 114 198 10 242 -43 17 -71 17 -112 -1z"/>
<path d="M71 302 c-51 -28 -72 -74 -69 -152 l3 -65 93 -3 92 -3 0 31 c0 57 53
87 139 77 47 -6 48 -5 64 28 9 18 25 36 37 40 28 9 21 24 -20 47 -51 27 -289
27 -339 0z"/>
<path d="M417 144 l-33 -66 -18 26 c-15 24 -22 27 -69 24 -44 -3 -52 -6 -52
-23 0 -16 8 -21 38 -23 31 -3 42 -10 64 -43 15 -24 33 -39 42 -37 9 2 30 29
46 60 17 32 32 58 35 58 3 0 18 -20 33 -46 l27 -45 53 3 c44 3 52 6 52 23 0
16 -8 21 -37 23 -35 3 -41 8 -75 67 -24 40 -45 65 -55 65 -12 0 -29 -22 -51
-66z"/>
</g>
</svg>
